<svg xmlns="http://www.w3.org/2000/svg" width="469.937" height="138.500" viewBox="0 0 469.937 138.500" fill="#6bcaff">
  <path d="M 234.542 32.5 C 235.312 32.5 235.793 33.333 235.409 34 L 175.364 138 C 175.185 138.309 174.855 138.5 174.498 138.5 L 96.506 138.5 C 95.737 138.5 95.256 137.667 95.641 137 L 155.685 33 C 155.864 32.691 156.194 32.5 156.551 32.5 L 234.542 32.5 Z M 314.215 32.5 C 314.985 32.5 315.466 33.333 315.081 34 L 306.063 49.62 C 305.884 49.929 305.555 50.12 305.198 50.12 L 268.352 50.12 C 267.995 50.12 267.664 50.311 267.486 50.62 L 227.141 120.5 C 226.756 121.167 227.237 122 228.006 122 L 263.069 122 C 263.839 122 264.32 122.833 263.935 123.5 L 255.563 138 C 255.384 138.309 255.055 138.5 254.698 138.5 L 197.807 138.5 C 197.038 138.5 196.557 137.667 196.942 137 L 256.986 33 C 257.164 32.691 257.495 32.5 257.852 32.5 L 314.215 32.5 Z M 346.242 32.5 C 347.011 32.5 347.493 33.333 347.108 34 L 287.063 138 C 286.884 138.309 286.555 138.5 286.198 138.5 L 270.307 138.5 C 269.538 138.5 269.057 137.667 269.442 137 L 329.486 33 C 329.664 32.691 329.995 32.5 330.352 32.5 L 346.242 32.5 Z M 342.512 103.5 C 343.282 103.5 343.763 104.333 343.378 105 L 334.141 121 C 333.756 121.667 334.237 122.5 335.006 122.5 L 399.28 122.5 C 400.049 122.5 400.531 123.333 400.146 124 L 392.063 138 C 391.884 138.309 391.555 138.5 391.198 138.5 L 308.799 138.5 C 308.03 138.5 307.548 137.667 307.933 137 L 326.986 104 C 327.164 103.691 327.495 103.5 327.852 103.5 L 342.512 103.5 Z M 468.935 0 C 469.705 0 470.186 0.833 469.801 1.5 L 460.563 17.5 C 460.384 17.809 460.055 18 459.698 18 L 39.568 18 C 38.798 18 38.317 18.833 38.702 19.5 L 77.909 87.409 C 78.294 88.076 79.256 88.076 79.641 87.409 L 96.909 57.5 C 97.293 56.833 96.812 56 96.042 56 L 74.939 56 C 74.169 56 73.688 55.167 74.073 54.5 L 86.486 33 C 86.664 32.691 86.995 32.5 87.352 32.5 L 136.567 32.5 C 137.331 32.5 137.813 33.323 137.439 33.989 L 79.637 136.964 C 79.257 137.641 78.284 137.645 77.898 136.972 L 0.134 1.498 C -0.248 0.831 0.233 0 1.001 0 L 468.935 0 Z M 451.138 32.5 C 451.908 32.5 452.389 33.333 452.004 34 L 405.063 115.304 C 404.884 115.613 404.555 115.804 404.198 115.804 L 389.506 115.804 C 388.737 115.803 388.256 114.97 388.641 114.304 L 406.425 83.5 L 398.995 83.5 C 398.363 83.5 397.89 82.923 398.014 82.304 L 400.614 69.304 C 400.707 68.836 401.118 68.5 401.594 68.5 L 415.085 68.5 L 419.704 60.5 L 403.943 60.5 C 403.329 60.5 402.86 59.952 402.954 59.346 L 405.142 45.346 C 405.218 44.859 405.638 44.5 406.13 44.5 L 428.942 44.5 L 435.581 33 C 435.76 32.691 436.09 32.5 436.448 32.5 L 451.138 32.5 Z M 170.352 57.5 C 169.995 57.5 169.664 57.691 169.486 58 L 138.021 112.5 C 137.636 113.167 138.117 114 138.886 114 L 160.198 114 C 160.555 114 160.885 113.809 161.064 113.5 L 192.529 59 C 192.914 58.333 192.432 57.5 191.663 57.5 L 170.352 57.5 Z M 398.581 34 C 399.204 34 399.674 34.562 399.566 35.175 L 388.921 95.175 C 388.837 95.652 388.421 96 387.936 96 L 372.465 96 C 371.844 96 371.373 95.439 371.481 94.827 L 377.191 62.321 C 377.363 61.341 376.154 60.739 375.475 61.467 L 343.571 95.682 C 343.382 95.884 343.117 96 342.839 96 L 323.579 96 C 322.705 96 322.251 94.955 322.849 94.316 L 378.978 34.316 C 379.167 34.114 379.432 34 379.708 34 L 398.581 34 Z" fill="#6bcaff" fill-rule="evenodd"></path>
</svg>